<?xml version="1.0" standalone="no"?><!DOCTYPE svg PUBLIC "-//W3C//DTD SVG 1.1//EN" "http://www.w3.org/Graphics/SVG/1.1/DTD/svg11.dtd"><svg t="1576759341504" class="icon" viewBox="0 0 1024 1024" version="1.1" xmlns="http://www.w3.org/2000/svg" p-id="2066" xmlns:xlink="http://www.w3.org/1999/xlink" width="200" height="200"><defs><style type="text/css"></style></defs><path d="M354.857143 731.428571l340 0 0-340zm-25.714286-25.714286l340-340-340 0 0 340zm658.285714 44l0 109.714286q0 8-5.142857 13.142857t-13.142857 5.142857l-128 0 0 128q0 8-5.142857 13.142857t-13.142857 5.142857l-109.714286 0q-8 0-13.142857-5.142857t-5.142857-13.142857l0-128-493.714286 0q-8 0-13.142857-5.142857t-5.142857-13.142857l0-493.714286-128 0q-8 0-13.142857-5.142857t-5.142857-13.142857l0-109.714286q0-8 5.142857-13.142857t13.142857-5.142857l128 0 0-128q0-8 5.142857-13.142857t13.142857-5.142857l109.714286 0q8 0 13.142857 5.142857t5.142857 13.142857l0 128 486.285714 0 140.571429-141.142857q5.714286-5.142857 13.142857-5.142857t13.142857 5.142857q5.142857 5.714286 5.142857 13.142857t-5.142857 13.142857l-141.142857 140.571429 0 486.285714 128 0q8 0 13.142857 5.142857t5.142857 13.142857z" p-id="2067" fill="#515151"></path></svg>